<?xml version="1.0" standalone="no"?>
<!DOCTYPE svg PUBLIC "-//W3C//DTD SVG 1.1//EN" "http://www.w3.org/Graphics/SVG/1.1/DTD/svg11.dtd" >
<svg xmlns="http://www.w3.org/2000/svg">
<metadata>
Created by FontForge 20120731 at Mon Dec 12 10:30:10 2016
 By admin
</metadata>
<defs>
<font id="iconfont" horiz-adv-x="1024" >
  <font-face 
    font-family="iconfont"
    font-weight="500"
    font-stretch="normal"
    units-per-em="1024"
    panose-1="2 0 6 3 0 0 0 0 0 0"
    ascent="896"
    descent="-128"
    x-height="792"
    bbox="-0.533333 -212 1059.33 902"
    underline-thickness="0"
    underline-position="0"
    unicode-range="U+0078-E890"
  />
<missing-glyph 
 />
    <glyph glyph-name=".notdef" 
 />
    <glyph glyph-name=".notdef" 
 />
    <glyph glyph-name=".null" horiz-adv-x="0" 
 />
    <glyph glyph-name="nonmarkingreturn" horiz-adv-x="341" 
 />
    <glyph glyph-name="x" unicode="x" horiz-adv-x="1001" 
d="M281 543q-27 -1 -53 -1h-83q-18 0 -36.5 -6t-32.5 -18.5t-23 -32t-9 -45.5v-76h912v41q0 16 -0.5 30t-0.5 18q0 13 -5 29t-17 29.5t-31.5 22.5t-49.5 9h-133v-97h-438v97zM955 310v-52q0 -23 0.5 -52t0.5 -58t-10.5 -47.5t-26 -30t-33 -16t-31.5 -4.5q-14 -1 -29.5 -0.5
t-29.5 0.5h-32l-45 128h-439l-44 -128h-29h-34q-20 0 -45 1q-25 0 -41 9.5t-25.5 23t-13.5 29.5t-4 30v167h911zM163 247q-12 0 -21 -8.5t-9 -21.5t9 -21.5t21 -8.5q13 0 22 8.5t9 21.5t-9 21.5t-22 8.5zM316 123q-8 -26 -14 -48q-5 -19 -10.5 -37t-7.5 -25t-3 -15t1 -14.5
t9.5 -10.5t21.5 -4h37h67h81h80h64h36q23 0 34 12t2 38q-5 13 -9.5 30.5t-9.5 34.5q-5 19 -11 39h-368zM336 498v228q0 11 2.5 23t10 21.5t20.5 15.5t34 6h188q31 0 51.5 -14.5t20.5 -52.5v-227h-327z" />
    <glyph glyph-name="shouji" unicode="&#xe625;" 
d="M694 879h-363q-34 0 -58.5 -24t-24.5 -58v-826q0 -35 24.5 -59t58.5 -24h363q34 0 58.5 24t24.5 59v826q0 34 -24.5 58t-58.5 24zM463 813h99q7 0 11.5 -4.5t4.5 -11.5t-4.5 -12t-11.5 -5h-99q-7 0 -12 5t-5 12t5 11.5t12 4.5zM512.5 -79q-20.5 0 -35 14.5t-14.5 35
t14.5 35t35 14.5t35 -14.5t14.5 -35t-14.5 -35t-35 -14.5zM744 53h-463v661h463v-661z" />
    <glyph glyph-name="search" unicode="&#xe67c;" 
d="M997 -62l-280 300q26 36 44 76q38 83 38 176q0 82 -30 158q-44 111 -139 179q-47 34 -101 52q-56 18 -115 18q-79 0 -151 -32q-52 -24 -95 -62q-66 -57 -102 -137q-38 -83 -38 -176q0 -83 30 -158q44 -111 139 -179q47 -34 101 -52q56 -18 116 -18q78 0 150 32
q48 21 89 55l276 -296l68 64v0zM510 156q-47 -15 -96 -15q-67 0 -127 27q-44 20 -81 52q-56 49 -87 118q-33 72 -33 152q0 71 26 136q38 96 119 154q40 28 86 43q47 16 97 16q66 0 126 -27q44 -20 81 -52q56 -49 87 -118q33 -72 33 -152q0 -71 -26 -137q-38 -95 -119 -153
q-40 -28 -86 -44z" />
    <glyph glyph-name="xiugai" unicode="&#xe630;" 
d="M1022 745q-5 -20 -8.5 -29t-10.5 -22t-16 -21q-77 -62 -155.5 -141t-168.5 -177t-145 -152q-11 -11 -12 -13q-19 -29 -44 -51.5t-56.5 -37.5t-58 -24.5t-65.5 -22t-61 -20.5q-17 -6 -36 15t-14 39q42 149 57 196q3 10 22 29q51 49 141.5 135.5t165.5 158.5t141 136
q16 15 31.5 32.5t37.5 43.5t30 35q33 38 75 40.5t77 -32.5q5 -5 17.5 -16.5t18.5 -18t14.5 -17.5t13.5 -22t7 -24l2 -17q1 -1 0 -1.5t0 -0.5zM750 697l-1 -1l-1 -1l-1 -1l-1 -1l-1 -1l-1 -1l-1 -1l-1 -1l-1 -1l-1 -1l-1 -1l-1 -1l-1 -1l-1 -1l-1 -1l-1 -1l-1 -1l-1 -1l-1 -1
l-1 -1l-1 -1l-1 -1l-1 -1l-1 -1l-1 -1l-1 -1l-1 -1l-1 -1l-1 -1l-1 -1l-1 -1l-1 -1l-1 -1l-1 -1l-1 -1l-1 -1l-1 -1l-1 -1l-1 -1l-1 -1l-1 -1l-1 -1l-1 -1l-1 -1l-1 -1l-1 -1l-1 -1l-1 -1l-1 -1l-1 -1l-1 -1l-1 -1l-1 -1l-1 -1l-1 -1l-1 -1l-1 -1l-1 -1l-1 -1l-1 -1l-1 -1
l-1 -1l-1 -1l-1 -1l-1 -1l-1 -1l-1 -1l-1 -1l-1 -1l-1 -1l-1 -1l-1 -1l-1 -1l-1 -1l-1 -1l-1 -1l-1 -1l-1 -1l-1 -1l-1 -1l-1 -1l-1 -1l-1 -1l-1 -1l-1 -1l-1 -1l-1 -1l-1 -1l-1 -2l-1 -1l-1 -1l-1 -1l-1 -1l-1 -1l-1 -1l-1 -1l-1 -1l-1 -1l-1 -1l-1 -1l-1 -1l-1 -1l-1 -1
l-1 -1l-1 -1l-1 -1l-1 -1l-1 -1l-1 -1l-1 -1l-1 -1l-1 -1l-1 -1l-1 -1l-1 -1l-1 -1l-1 -1l-1 -1l-1 -1l-1 -1l-1 -1l-1 -1l-1 -1l-1 -1l-1 -1l-1 -1l-1 -1l-1 -1l-1 -1l-1 -1l-1 -1l-1 -1l-1 -1l-1 -1l-1 -1l-1 -1l-1 -1l-1 -1l-1 -1l-1 -1l-1 -1l-1 -1l-1 -1l-1 -1l-1 -1
l-1 -1l-1 -1l-1 -1l-1 -1l-1 -1l-1 -1l-1 -1l-1 -1l-1 -1l-1 -1l-1 -1l-1 -1l-1 -1l-1 -1l-1 -1l-1 -1l-1 -1l-1 -1l-1 -1l-1 -1l-1 -1l-1 -1l-1 -1l-1 -1l-1 -1l-1 -1l-1 -1l-1 -1l-1 -1l-1 -1l-1 -1l-1 -1l-1 -1l-1 -1l-1 -1l-1 -1l-1 -1l-1 -1l-1 -1l-1 -1l-1 -1l-1 -1
l-1 -1l-1 -1l-1 -1l-1 -1l-1 -1l-1 -1l-1 -1l-1 -1l-1 -1l-1 -1l-1 -1l-1 -1l-1 -1l-1 -1l-1 -1l-1 -1l-1 -1l-1 -1l-1 -1l-1 -1l-1 -1l-1 -1l-1 -1l-1 -1l-1 -1l-1 -1l-1 -1l-1 -1l-1 -1l-1 -1l-1 -1l-1 -1l-1 -1l-1 -1l-1 -1l-1 -1l-1 -1l-1 -1l-1 -1l-1 -1l-2 -2l-1 -1
l-1 -1l-1 -1l-1 -1l-1 -1l-1 -1l-1 -1l-1 -1l-1 -1l-1 -1l-1 -1l-1 -1l-1 -1l-1 -1l-1 -1l-1 -1l-1 -1l-1 -1l-1 -1l-1 -1l-1 -1l-1 -1l-1 -1l-1 -1l-1 -1l-1 -1l-1 -1l-1 -1l-1 -1l-1 -1l-1 -1l-1 -1l-1 -1l-1 -1l-1 -1l-1 -1l-1 -1l-1 -1l-1 -1l-1 -1l-1 -1l-1 -1l-1 -1
l-1 -1l-1 -1l-1 -1l-1 -1l-1 -1l-1 -1l-1 -1l-1 -1l-1 -1l-1 -1l-1 -1l-1 -1l-1 -1l-1 -1l-1 -1l-1 -1l-1 -1l-1 -1l-1 -1l-1 -1l-1 -1l-1 -1l-1 -1l-1 -1l-1 -1l-1 -1l-1 -1l-1 -1l-1 -1l-1 -1l-1 -1l-1 -1l-1 -1l-1 -1l-1 -1l-1 -1l-1 -1l-1 -1l-1 -1l-1 -1l-1 -1l-1 -1
l-1 -1l-1 -1l-1 -1l-1 -1l-1 -1l-1 -1l-1 -1l-1 -1l-1 -1l-1 -1l-1 -1l-1 -1l-1 -1l-1 -1l-1 -1l-1 -1l-1 -1l-1 -1l-1 -1l-1 -1l-1 -1l-1 -1l-1 -1l-1 -1l-1 -1l-1 -1l-1 -1l-1 -1l-1 -1l-1 -1l-1 -1l-1 -1l-1 -1l-1 -1l-1 -1l-1 -1l-1 -1l-1 -1l-1 -1l-1 -1l-1 -1l-1 -1
l-1 -1l-1 -1l-1 -1l-1 -1l-1 -1l-1 -1l-1 -1l-1 -1l-1 -1l-1 -1l-1 -1l-1 -1l-1 -1l-1 -1l-1 -1l-1 -1l-1 -1l-1 -1l-1 -1l-1 -1l-1 -1l-1 -1l-1 -1l-1 -1l-1 -1l-1 -1l-1 -1l-1 -1l-1 -1l-1 -1l-1 -1l-1 -1l-1 -1l-1 -1l-1 -1l-1 -1l-1 -1l-1 -1l-1 -1l-1 -1l-1 -1l-1 -1
l-1 -1l-1 -1l-1 -1l-1 -2l-1 -1l-1 -1l-1 -1l-1 -1l-1 -1l-1 -1l-1 -1l-1 -1l-1 -1l-1 -1l-1 -1l-1 -1l-1 -1l-1 -1l-1 -1l-1 -1l-1 -1l-1 -1l-1 -1l-1 -1l-1 -1l-1 -1l-1 -1l-1 -1l-1 -1l-1 -1l-1 -1l-1 -1q53 -54 75 -75q42 40 435 426q-12 11 -27 27.5t-29.5 29.5
t-23.5 24zM785 758l104 -100q21 28 22 29q19 20 26.5 28t14 20.5t6.5 16.5t-7 16t-15 19.5t-28 26.5l-2.5 2.5l-1.5 1.5q-28 25 -55 0q-5 -4 -64 -60zM249 112q32 13 82 33q-28 34 -51 61q-7 -21 -31 -94zM458 -125h-289q-87 0 -135 57q-29 35 -30 95q0 440 1 575
q0 77 44.5 120.5t122.5 44.5h156h156q14 0 22.5 -1.5t16 -8.5t9.5 -21q3 -32 -49 -32q-34 0 -152 0.5t-152 -0.5q-54 0 -83.5 -29.5t-29.5 -84.5v-554q0 -43 26.5 -70.5t69.5 -28.5h592q35 0 56 23t22 61v212v168q0 25 3 28q19 27 31 25q3 0 6 -2t6 -5.5t5.5 -7t5.5 -8.5
t5 -7v-18v-376q0 -79 -38 -117t-118 -38h-280z" />
    <glyph glyph-name="icon" unicode="&#xe602;" 
d="M721 417h-177v176q0 13 -9 22t-22 9t-22 -9t-9 -22v-176h-177q-13 0 -22 -9.5t-9 -22.5t9 -22t22 -9h177v-176q0 -13 9 -22.5t22 -9.5t22 9.5t9 22.5v176h177q13 0 22 9t9 22t-9 22.5t-22 9.5v0zM513 896q-104 0 -198.5 -40.5t-162.5 -109t-108.5 -163t-40.5 -198
t40.5 -198t108.5 -163t162.5 -109t198.5 -40.5t198.5 40.5t162.5 109t108.5 163t40.5 198t-40.5 198t-108.5 163t-162.5 109t-198.5 40.5v0zM513 -61q-91 0 -173.5 35.5t-142.5 95t-95 142.5t-35 173.5t35 173t95 142.5t142.5 95.5t173.5 35.5t173.5 -35.5t142.5 -95.5
t95 -142.5t35 -173t-35 -173.5t-95 -142.5t-142.5 -95t-173.5 -35.5v0zM513 -61z" />
    <glyph glyph-name="gouwuche" unicode="&#xe639;" horiz-adv-x="1059" 
d="M878 622q-5 0 -9 3l-158 158q-9 10 -19 0l-157 -158q-9 -8 -18 0.5t0 17.5l158 158q11 11 27 11t27 -11l158 -158q9 -9 0 -18q-4 -3 -9 -3zM364.5 -212q-41.5 0 -71.5 29.5t-30 71.5t30 72t71.5 30t71.5 -30t30 -72t-30 -71.5t-71.5 -29.5zM364.5 -34q-31.5 0 -54 -22.5
t-22.5 -54t22.5 -54t54 -22.5t54 22.5t22.5 54t-22.5 54t-54 22.5zM806 -212q-42 0 -71.5 29.5t-29.5 71.5t29.5 72t71.5 30t71.5 -30t29.5 -72t-29.5 -71.5t-71.5 -29.5zM806 -34q-32 0 -54 -22.5t-22 -54t22 -54t54 -22.5t54 22.5t22 54t-22 54t-54 22.5zM879 20h-491
q-62 0 -102.5 31.5t-52.5 90.5q-27 127 -97 500h-76q-25 0 -42.5 18t-17.5 42.5t17.5 42t42.5 17.5h81h7q35 0 65.5 -22t39.5 -68q2 -16 12 -66h693q25 0 38 -1t29.5 -7.5t25.5 -20.5q20 -32 -8 -98q-7 -19 -64 -181l-9 -23q-20 -58 -92 -58h-539q8 -36 11 -50
q2 -11 4 -15.5t10.5 -8t23.5 -3.5h491q25 0 42.5 -17.5t17.5 -42.5t-17.5 -42.5t-42.5 -17.5zM147 668q10 0 12 -10l1 -3q60 -330 97 -508q22 -102 131 -102h491q15 0 25 10.5t10 24.5t-10 24.5t-25 10.5h-491q-33 0 -45.5 12t-17.5 34q-5 23 -13 66q-1 6 2.5 10.5t9.5 4.5
h554q54 0 69 41l8 24q57 161 65 181q22 55 9 76q-7 11 -23 14t-48 3h-703q-11 0 -13 10q-9 52 -14 77q-7 37 -33 54t-53 15h-82q-15 0 -25 -10t-10 -24.5t10 -24.5t25 -10h83h1h1h2z" />
    <glyph glyph-name="xuanzhong" unicode="&#xe636;" 
d="M511.5 894q-103.5 0 -197.5 -40.5t-162.5 -108.5t-108.5 -162.5t-40 -198t40 -198t108.5 -162.5t162.5 -108.5t197.5 -40.5t198 40.5t162.5 108.5t108.5 162.5t40.5 198t-40.5 198t-108.5 162.5t-162.5 108.5t-198 40.5zM792 525l-303 -303v0l-1 -2l-20 -19l-6 -6l-3 -2
q-2 -2 -6 -1q-5 -1 -7 1l-3 3q-3 2 -6 5l-17 18l-3 3v1l-186 195q-14 15 -7 22l30 28q8 7 22 -8l178 -186l294 294q15 15 22 8l29 -29q8 -8 -7 -22z" />
    <glyph glyph-name="houtui" unicode="&#xe654;" 
d="M711 649l-349 -349l349 -349q7 -7 7 -16.5t-6.5 -16t-16 -6.5t-16.5 6l-345 345q-16 15 -21 20q-7 7 -7 17t7 17q44 44 48 47l318 318q7 6 16.5 6t16 -6.5t6.5 -16t-7 -16.5z" />
    <glyph glyph-name="jinlingyingcaiwangtubiao07" unicode="&#xe790;" 
d="M839 277l158 361q5 11 -1 20t-17 9h-679l-26 119q-3 16 -20 16h-221q-8 0 -14 -6t-6 -14.5t6 -14.5t14 -6h205l127 -592q-36 -8 -60.5 -37.5t-24.5 -67.5q0 -45 32 -76.5t76.5 -31.5t76 31.5t31.5 76.5q0 36 -24 66h235q-24 -30 -24 -66q0 -45 31.5 -76.5t76 -31.5
t76.5 31.5t32 76t-32 76t-76 31.5h-1.5h-1.5v1h-382l0.5 0.5t-0.5 0.5l-19 92h434q13 0 18 12zM388 -3q-28 0 -47.5 19.5t-19.5 47t20 47t47.5 19.5t47 -19.5t19.5 -47t-19.5 -47t-47.5 -19.5zM858 63.5q0 -27.5 -20 -47t-47.5 -19.5t-47 19.5t-19.5 47t19.5 47t47 19.5
t47.5 -19.5t20 -47zM383 306l-74 320h638l-140 -320h-424z" />
    <glyph glyph-name="icon07" unicode="&#xe607;" 
d="M865 -95h-717q-49 0 -84 35t-35 84v717q0 50 35.5 87.5t84.5 37.5h481v-60h-481q-24 0 -42 -19.5t-18 -45.5v-717q0 -24 17.5 -41.5t41.5 -17.5h717q25 0 45 18t20 42v481h61v-481q0 -49 -38 -84.5t-88 -35.5zM508 194q-12 -11 -31 -15l-261 -129q-22 -10 -36.5 5
t-6.5 37l130 262q3 19 15 31l464 464q18 18 42.5 18t42.5 -18l105 -105q18 -18 18 -42.5t-18 -42.5zM231 128q-6 -10 2 -18t19 -3l161 98l-85 85zM381 321l64 -63v0v0v-1v0h1v-1v0h1v-1h1v-1h1l1 -1v-1h1v-1l1 -1h1l1 -1v-1l1 -1l1 -1h1l1 -1l1 -1v-1l1 -1l1 -1l1 -1l1 -1
l1 -1l2 -1l337 338l-106 105l-337 -338q6 -5 10.5 -10t10.5 -11zM909 723l-63 63q-9 9 -21.5 9t-21.5 -9l-61 -62l104 -107l63 63q9 9 9 21.5t-9 21.5z" />
    <glyph glyph-name="xiaoxi" unicode="&#xe61f;" 
d="M640 -63l1 53q138 32 226 141.5t88 251.5q1 143 -89 254.5t-225 138.5l-1 53q157 -24 262.5 -150t105.5 -295.5t-105.5 -296t-262.5 -150.5v0zM470 -10l-301 210h-79q-27 0 -52.5 25.5t-25.5 52.5v210q0 27 25.5 53t52.5 26h79l301 210q27 0 46.5 -19.5t19.5 -46.5v-656
q0 -27 -19.5 -46t-46.5 -19v0zM169 455q0 14 -10 23.5t-25 9.5h-8q-15 0 -25 -9.5t-10 -23.5v-144q0 -13 10 -23t25 -10h8q15 0 25 10t10 23v144zM458 173v445v53l-210 -150v-20.5v-6.5v-4v-7v-200v-38l210 -150v78zM798 383q0 -86 -40.5 -142t-116.5 -68v53q50 11 77.5 54
t27.5 103t-27.5 103.5t-77.5 53.5v53q76 -12 116.5 -68t40.5 -142z" />
    <glyph glyph-name="dingwei" unicode="&#xe64d;" 
d="M532 733q-128 0 -218.5 -88t-90.5 -212q0 -76 31 -166t69 -157.5t88 -137t72 -95.5t36 -42l13 -14l12 14q15 16 37 42t71.5 96t88 137.5t69 157t30.5 165.5q0 124 -90.5 212t-217.5 88v0zM532 -129q-24 28 -50.5 61.5t-69.5 97.5t-75 125.5t-56.5 137t-24.5 140.5
q0 111 81 189.5t195 78.5t194.5 -78.5t80.5 -189.5q0 -64 -24 -139.5t-56 -137t-75 -126t-69.5 -98t-50.5 -61.5v0zM535 544q-48 0 -83 -33.5t-35 -81t35 -81.5t83.5 -34t83 34t34.5 81.5t-34.5 81t-83.5 33.5v0zM535 347q-35 0 -59.5 24t-24.5 58t24.5 58.5t60 24.5
t60 -24.5t24.5 -58.5t-24.5 -58t-60.5 -24v0z" />
    <glyph glyph-name="circle19" unicode="&#xe608;" 
d="M512 812q-138 0 -256 -69t-187 -187t-69 -256t69 -256t187 -187t256 -69t256 69t187 187t69 256t-69 256t-187 187t-256 69zM512 -169q-96 0 -183 37t-149.5 99.5t-99.5 149.5t-37 183t37 183t99.5 149.5t149.5 99.5t183 37t183 -37t149.5 -99.5t99.5 -149.5t37 -183
t-37 -183t-99.5 -149.5t-149.5 -99.5t-183 -37z" />
    <glyph glyph-name="15" unicode="&#xe611;" 
d="M513 -94q-97 0 -185.5 38t-152.5 101.5t-102 152t-38 185.5t38 185.5t102 152.5t152.5 102t185.5 38t185 -38t152 -102t102 -152.5t38 -185.5t-38 -185.5t-102 -152t-152 -101.5t-185 -38zM512.5 824q-89.5 0 -171 -35t-140.5 -94t-94 -140.5t-35 -171t35 -171t94 -141
t140.5 -94.5t171 -35t171 35t140.5 94.5t94 141t35 171t-35 171t-94 140.5t-140.5 94t-171 35zM273 405h479v-44h-479v44zM491 623h43v-479h-43v479z" />
    <glyph glyph-name="xiazai" unicode="&#xe890;" 
d="M490 152q8 -7 18.5 -7t17.5 7l309 309q7 8 7 18t-7 17.5t-17.5 7.5t-18.5 -7l-266 -266v612q0 10 -7 17.5t-17.5 7.5t-18 -7.5t-7.5 -17.5v-612l-266 266q-7 7 -17.5 7t-18 -7.5t-7.5 -17.5t7 -18zM936.5 202q-10.5 0 -18 -7.5t-7.5 -17.5v-9v-149q0 -15 -10 -25.5
t-25 -10.5h-736q-15 0 -25 10.5t-10 25.5v149v9q0 10 -7.5 17.5t-18 7.5t-17.5 -7.5t-7 -17.5v-9v-168q0 -28 19.5 -47.5t47.5 -19.5h773q27 0 47 19.5t20 47.5v168v9q0 10 -7.5 17.5t-18 7.5z" />
    <glyph glyph-name="erji" unicode="&#xe60a;" 
d="M911 278h-48q0 56 -3 102t-12 98t-24 92t-41 78t-61.5 62.5t-86.5 39.5t-115 15q-184 0 -275.5 -120t-91.5 -367h-47q0 265 105 400t309 135q73 0 132 -18t99 -46.5t69.5 -72t46.5 -88t27 -101.5t13.5 -104.5t3.5 -104.5zM184 -11l-18 -5q-48 -11 -87 23.5t-55 102.5
t4 116.5t68 59.5l18 4zM87 239q-23 -15 -29 -51t4 -71q9 -40 29 -68t47 -31zM222 -43h-1q-27 -6 -50.5 8.5t-30.5 42.5l-57 246q-6 27 8.5 50.5t41.5 29.5q28 7 52 -8t30 -42l57 -246q7 -27 -8 -50.5t-42 -30.5v0zM143 297q-12 -3 -18.5 -13t-3.5 -22l57 -246
q3 -11 13 -17.5t21 -3.5h1q12 3 18 13t4 21l-58 246q-2 12 -12 18t-22 4zM910 293l19 -4q48 -11 67.5 -59.5t4 -116t-54.5 -102t-87 -23.5l-19 4zM886 21q27 4 47 32t29 67q10 35 4 71t-28 51l-52 -221v0zM753 42l57 245q6 27 29.5 41.5t51.5 8.5q27 -6 41.5 -29.5
t8.5 -50.5l-57 -246q-6 -27 -29.5 -41.5t-50.5 -8.5h-1q-27 7 -42 30.5t-8 50.5v0zM847 278l-57 -245q-2 -11 4 -21t17 -13h1q12 -3 22 3.5t13 17.5l57 245q2 12 -4.5 22t-18.5 13q-11 2 -21 -4t-13 -18z" />
    <glyph glyph-name="icon1" unicode="&#xe603;" 
d="M805 821q29 0 49 -19.5t20 -47.5v-657l7 16l-149 -152l16 7h-539q-28 0 -48.5 19.5t-20.5 47.5v809l-23 -23h688zM94 866v-831q0 -46 34 -79t81 -33h549l162 165v666q0 47 -33.5 79.5t-81.5 32.5h-711v0zM714 215q-29 0 -49 -20t-20 -48v-134q0 -10 6.5 -16.5t16 -6.5
t16.5 6.5t7 16.5v134q0 10 6.5 16.5t16.5 6.5h103q9 0 16 6.5t7 16t-7 16t-16 6.5h-103zM750 664q9 0 16 6.5t7 16t-7 16t-16 6.5h-472q-10 0 -16.5 -6.5t-6.5 -16t6.5 -16t16.5 -6.5h472zM750 529q9 0 16 7t7 16t-7 15.5t-16 6.5h-472q-10 0 -16.5 -6.5t-6.5 -15.5t6.5 -16
t16.5 -7h472zM750 372q9 0 16 6.5t7 16t-7 16t-16 6.5h-472q-10 0 -16.5 -6.5t-6.5 -16t6.5 -16t16.5 -6.5h472z" />
    <glyph glyph-name="weixuanzhong" unicode="&#xe685;" 
d="M463 225zM463 191q-13 0 -23 8l-160 144q-10 9 -11 23t8.5 24.5t23.5 11.5t25 -9l159 -143q11 -9 11.5 -23.5t-8.5 -24.5q-10 -11 -25 -11zM736 563zM462 190q-12 0 -21 8q-11 9 -12.5 23t7.5 25l274 339q9 10 23 11.5t24.5 -7t12 -22.5t-6.5 -25l-274 -339
q-10 -13 -27 -13zM519.5 -115q-101.5 0 -194.5 38.5t-165 110.5t-110.5 165t-38.5 195t38.5 194.5t110.5 164.5t165 110.5t194.5 38.5t194.5 -38.5t165 -110.5v0v0q72 -72 110.5 -164.5t38.5 -194.5t-38.5 -195t-110.5 -165t-165 -110.5t-194.5 -38.5zM519.5 834
q-88.5 0 -169 -33t-142.5 -95.5t-95.5 -143t-33.5 -168.5t33.5 -168.5t95.5 -143t142.5 -96t169 -33.5t169 33.5t143 96t95.5 143t33 168.5t-33 168.5t-96 142.5v0q-62 63 -142.5 96t-169 33z" />
    <glyph glyph-name="fenlei" unicode="&#xe631;" 
d="M258 864q94 0 160 -66l0.5 -0.5l1.5 -1.5q64 -66 64 -158v-201q0 -10 -7 -17.5t-17 -7.5h-202q-93 0 -160 66v0v0q-66 67 -66 160.5t66.5 159.5t159.5 66v0zM383 763q-52 51 -125 51t-124.5 -51.5t-51.5 -124.5t52 -124v0q51 -52 124 -52h177v176q0 72 -51 123zM696 309
q-10 0 -17.5 7t-7.5 17.5t7.5 17.5t17.5 7h69q93 0 160 -66l0.5 -0.5l0.5 -0.5q65 -66 65 -158q0 -94 -66 -160v0q-67 -66 -160.5 -66t-159.5 66v0v0q-67 66 -67 160v201q0 10 7.5 17t18 7t17.5 -7t7 -17v-201q0 -73 52 -125v0q52 -52 125 -52t124.5 52t51.5 125
q0 72 -50 123l-2 1q-51 52 -124 52h-69zM258 -44q73 0 125 52t52 125v176h-177q-73 0 -124.5 -51.5t-51.5 -124.5t52 -125l1 -1q51 -51 123 -51v0zM418 -27q-66 -66 -160 -66q-92 0 -158 64q0 1 -0.5 1.5t-1.5 0.5q-66 66 -66 159.5t66.5 159.5t159.5 66h202q10 0 17 -7
t7 -17v-201q0 -94 -66 -160v0zM765 814q-73 0 -125 -51.5t-52 -124.5v-176h177q73 0 124.5 51.5t51.5 124.5t-52 125v0q-51 51 -124 51v0zM605 798q66 66 159.5 66t160.5 -66v0v0q66 -66 66 -159.5t-66 -159.5v-1q-67 -66 -160 -66h-202q-10 0 -17.5 7.5t-7.5 17.5v201
q0 94 67 160v0z" />
    <glyph glyph-name="m-per-person" unicode="&#xe68d;" 
d="M994 7q-1 6 -1 7q0 74 -89.5 138.5t-236.5 97.5q30 35 48 89.5t18 109.5v199q0 112 -68.5 178t-174.5 66q-105 0 -163.5 -64.5t-58.5 -179.5v-199q0 -53 25.5 -106t63.5 -93q-89 -24 -160 -57t-119 -80.5t-48 -99.5v-7q-2 -16 15 -44.5t46 -43.5q31 -17 66.5 -26.5
t90 -13t94.5 -4.5t124 -1h46q318 0 443 67q19 10 29 23.5t9.5 23.5t0.5 20v0zM312 449v199q0 85 54 142t132 57t134.5 -57.5t56.5 -141.5v-199q0 -87 -51.5 -154t-125.5 -67q-77 0 -138.5 68t-61.5 153zM949 -11q-62 -33 -179 -51.5t-258 -18.5t-258.5 18.5t-178.5 51.5
l-3 1v9q1 9 1 14q0 49 93.5 112t228.5 86q57 -28 117 -28q6 0 12 0.5t12.5 2t10.5 2t10.5 3.5t9.5 3.5t10.5 4.5t9.5 5t10.5 5.5t10.5 5.5q72 -10 138 -34.5t109.5 -53.5t69 -59t25.5 -54q0 -5 1 -14l1 -9z" />
    <glyph glyph-name="qiaquan" unicode="&#xe606;" 
d="M425.5 504q-7.5 0 -12.5 5l-79 79q-5 5 -5 12.5t5.5 12.5t12.5 5t13 -5l78 -79q6 -5 6 -12.5t-5.5 -12.5t-13 -5zM597.5 504q-7.5 0 -12.5 5t-5 12.5t5 12.5l79 79q5 5 12.5 5t12.5 -5t5 -12.5t-5 -12.5l-79 -79q-5 -5 -12.5 -5zM696 462h-370q-8 0 -13 5t-5 12.5t5 13
t13 5.5h370q7 0 12 -5.5t5 -13t-5 -12.5t-12 -5zM696 328h-370q-8 0 -13 5.5t-5 12.5t5 12.5t13 5.5h370q7 0 12 -5.5t5 -12.5t-5 -12.5t-12 -5.5zM510.5 176q-7.5 0 -12.5 5t-5 13v284q0 8 5 13t12.5 5t12.5 -5t5 -13v-284q0 -8 -5 -13t-12.5 -5zM814 69q-6 0 -11 4
q-16 11 -40 17t-35 6.5t-16 0.5h-1h-597q-26 0 -45.5 16.5t-24.5 41.5q-30 13 -30 44v49q0 22 15 35q-15 13 -15 35v49q0 22 15 35q-15 13 -15 36v48q0 23 15 36q-15 13 -15 35v49q0 32 32 45v0q7 23 25.5 37.5t42.5 14.5h790q23 0 41 -12.5t25 -34.5q1 -1 1.5 -2t1.5 -2
q32 -13 32 -45v-49q0 -22 -15 -35q15 -13 15 -36v-49q0 -22 -15 -35q15 -13 15 -35v-49q0 -22 -15 -35q15 -13 15 -35v-49q0 -32 -31 -45q-5 -25 -24.5 -41.5t-45.5 -16.5h-31q-7 0 -12.5 5t-5.5 12.5t5.5 13t12.5 5.5h31q14 0 24 9t11 23l2 6q7 12 18 17q10 4 10 12v49
q0 8 -10 11q-11 5 -17 15q-5 9 0 18q6 10 17 14q10 4 10 12v49q0 8 -10 12q-11 4 -17 14q-5 9 0 18q6 10 17 15q10 3 10 11v49q0 8 -10 12q-11 4 -17 15q-5 9 0 18q6 10 17 14q10 4 10 12v49q0 8 -10 12q-11 4 -18 16q-2 3 -3 6q-3 12 -12.5 19.5t-21.5 7.5h-790
q-12 0 -21.5 -7.5t-12.5 -19.5q0 -2 -1 -3q-7 -15 -20 -20q-10 -4 -10 -12v-49q0 -8 10 -12t16 -13q3 -4 3 -10v-1q0 -5 -3 -10q-6 -9 -16 -13t-10 -12v-48q0 -8 10 -12t16 -13q3 -5 3 -10v-1q0 -6 -3 -10q-6 -9 -16 -13t-10 -12v-49q0 -8 10 -12t16 -13q3 -4 3 -9v-2
q0 -5 -3 -9q-6 -10 -16 -13.5t-10 -11.5v-49q0 -8 10 -12q11 -4 17 -14q2 -4 3 -8q1 -14 11 -23t24 -9h597q67 2 113 -31q6 -5 7 -12t-3 -13q-5 -8 -14 -8v0z" />
    <glyph glyph-name="chexiao-copy" unicode="&#xe609;" 
d="M962 688q-136 0 -237 -91.5t-115 -225.5h-49q6 68 36 129.5t79.5 111t124.5 79.5t164 31q-97 46 -144 56.5t-140 8.5q-113 -3 -212 -58t-159.5 -150.5t-63.5 -207.5h-46q10 127 82.5 232t187.5 165t244 60q80 0 143.5 -19.5t102.5 -43.5v0q6 -3 11 -6t8 -5t5.5 -3t4 -2.5
t3 -2t4 -3t4 -4.5t6 -7t8.5 -9q-5 1 -6 -1t0 -6t0 -9t-4 -9t-14 -7t-28 -3zM246 348q0 -10 -7.5 -17.5t-17.5 -7.5h-135l329 -328l330 328h-160q-10 0 -17 7.5t-7 17.5v23h233v1h9h1q10 0 17 -7.5t7 -17.5t-7 -18l-388 -387h-1q-7 -7 -17 -7t-17 7v0.5v0.5l-388 386
q-3 4 -5 9t-2 10q0 10 7 17t17 7h58l16 -1h145v-23v0zM966 719q0 -10 7 -17t17 -7t17 7t7 17t-7 17t-17 7t-17 -7t-7 -17z" />
    <glyph glyph-name="sousuo" unicode="&#xe600;" 
d="M186 218q-50 50 -76 115t-26 131t26 131t76 115q102 102 246 102t246 -102q49 -50 75 -115t26 -131t-26 -131t-75 -115q-102 -101 -246 -101t-246 101v0zM1009 -64l-260 260q68 81 90 183t-7 203t-105 177q-60 60 -137 91t-158.5 31t-158 -31t-136.5 -91
q-80 -80 -108.5 -187.5t0 -215t108.5 -187.5q60 -60 136.5 -91t158.5 -31q149 0 268 100l260 -260l49 49v0z" />
    <glyph glyph-name="shouye" unicode="&#xe604;" 
d="M1009 376l-501 468l-501 -467q-7 -7 -7.5 -17t6.5 -17.5t17 -7.5t17 7l468 436l468 -438q7 -6 17 -6t17 7q7 8 7 18t-8 17v0zM856 366q-10 0 -17 -7t-7 -17v-372h-194v259h-259v-259h-195v372q0 10 -7 17t-17 7t-17 -7t-7 -17v-421h291v259h162v-259h292v421
q0 10 -7.5 17t-17.5 7v0zM686 714h146v-130q0 -10 7 -17t17 -7t17.5 7t7.5 17v178h-195q-10 0 -17 -7t-7 -17t7 -17t17 -7v0zM686 714z" />
    <glyph glyph-name="laji" unicode="&#xe650;" 
d="M985 801h-321v15q0 33 -23 56t-55 23h-143q-33 0 -56 -23t-23 -56v-15h-320q-10 0 -17 -6.5t-7 -16t7 -16.5t17 -7h59l76 -862q1 -9 8 -15t16 -6h618q9 0 16 6t8 15l76 862h64q10 0 16.5 7t6.5 16.5t-6.5 16t-16.5 6.5zM411 816q0 13 9.5 22.5t22.5 9.5h143
q13 0 22.5 -9.5t9.5 -22.5v-15h-207v15zM800 -82h-576l-74 837h724zM363.5 75q9.5 0 16.5 7t7 17v441q0 10 -7 17t-16.5 7t-16.5 -7t-7 -17v-441q0 -10 7 -17t16.5 -7zM514.5 75q9.5 0 16.5 7t7 17v441q0 10 -7 17t-16.5 7t-16.5 -7t-7 -17v-441q0 -10 7 -17t16.5 -7z
M665.5 75q9.5 0 16.5 7t7 17v441q0 10 -7 17t-16.5 7t-16.5 -7t-7 -17v-441q0 -10 7 -17t16.5 -7z" />
    <glyph glyph-name="membershipcard" unicode="&#xe605;" 
d="M928 16h-832q-38 0 -65 27.5t-27 65.5v554q0 38 27 65t65 27h832q38 0 65 -27t27 -65v-554q0 -38 -27 -65.5t-65 -27.5zM96 719q-23 0 -39 -16.5t-16 -39.5v-554q0 -23 16 -39.5t39 -16.5h832q23 0 39 16.5t16 39.5v554q0 23 -16 39.5t-39 16.5h-832zM829 404h-61
q-34 0 -57 23.5t-23 56.5v62q0 33 23 56.5t57 23.5h61q33 0 56.5 -23.5t23.5 -56.5v-62q0 -33 -23.5 -56.5t-56.5 -23.5zM768 589q-18 0 -31 -12.5t-13 -30.5v-62q0 -17 13 -30t31 -13h61q18 0 30.5 13t12.5 30v62q0 18 -12.5 30.5t-30.5 12.5h-61zM484 257h-351q-8 0 -13 5
t-5 13t5 13.5t13 5.5h351q8 0 13.5 -5.5t5.5 -13.5t-5.5 -13t-13.5 -5zM484 164h-351q-8 0 -13 5.5t-5 13t5 13t13 5.5h351q8 0 13.5 -5.5t5.5 -13t-5.5 -13t-13.5 -5.5z" />
    <glyph glyph-name="dvt-home" unicode="&#xe64c;" 
d="M148 155v175q0 18 4 31q4 17 23 16.5t23 -18.5q2 -10 2 -30q1 -234 0 -303q0 -18 6.5 -25.5t25.5 -6.5q58 2 118 0q20 -1 27.5 6t7.5 27q-1 34 -1 94.5v94.5q-1 18 6.5 25t24.5 6q105 -1 192 1q19 0 26.5 -8.5t7.5 -27.5v-92t-1 -92q0 -20 8 -27.5t28 -6.5q54 2 119 0
q17 -1 24 6t7 25q-1 53 -1 302q0 20 1 28q3 20 22 22q20 2 25 -18q4 -15 4 -30q1 -178 0 -351q0 -25 -5.5 -30.5t-31.5 -5.5h-109t-109 -1q-19 0 -27 7t-7 27v96v96q1 16 -5.5 22.5t-21.5 5.5q-48 -2 -96 0q-16 1 -22 -5.5t-6 -22.5q1 -49 0 -189q0 -26 -5 -31t-32 -5
q-212 -1 -218 -1q-20 0 -27.5 8t-7.5 28q1 19 1 178v0zM43 345q-15 0 -22 12.5t1 25.5q4 8 19 21q403 377 451 423q9 8 17.5 9t13.5 -2.5t13 -11.5q21 -19 94.5 -88t113.5 -107q16 -14 103.5 -96t134.5 -125q1 -1 7.5 -7t8.5 -8.5t6 -8t4 -9.5t-2 -9.5t-7 -11.5
q-5 -5 -10.5 -7t-9.5 -2t-9 3.5t-7.5 5.5t-8.5 7.5t-7 7.5q-284 264 -415 387q-14 12 -22 11t-19 -11q-100 -94 -217 -203q-28 -27 -207 -192q-14 -13 -24 -14v0zM773 763h79q26 1 25 -25v-61v-77q-1 -36 -29 -35q-23 1 -23 36v84q1 26 -24.5 25.5t-87.5 -0.5q-19 1 -28 3
q-26 5 -24 26q2 23 27 24h85v0z" />
  </font>
</defs>
</svg>
